<svg width="22" height="23" viewBox="0 0 22 23" fill="none" xmlns="http://www.w3.org/2000/svg">
<mask id="mask0_67_2373" style="mask-type:alpha" maskUnits="userSpaceOnUse" x="0" y="0" width="22" height="23">
<rect y="0.5" width="22" height="22" fill="#D9D9D9"/>
</mask>
<g mask="url(#mask0_67_2373)">
<path d="M4.58333 20.6666C4.07917 20.6666 3.64757 20.4871 3.28854 20.128C2.92951 19.769 2.75 19.3374 2.75 18.8333V5.99992C2.75 5.49575 2.92951 5.06415 3.28854 4.70513C3.64757 4.3461 4.07917 4.16659 4.58333 4.16659H5.5V2.33325H7.33333V4.16659H14.6667V2.33325H16.5V4.16659H17.4167C17.9208 4.16659 18.3524 4.3461 18.7115 4.70513C19.0705 5.06415 19.25 5.49575 19.25 5.99992V10.5833H17.4167V9.66659H4.58333V18.8333H11V20.6666H4.58333ZM4.58333 7.83325H17.4167V5.99992H4.58333V7.83325ZM12.8333 20.6666V17.8478L17.8979 12.8062C18.0354 12.6687 18.1882 12.5694 18.3562 12.5083C18.5243 12.4471 18.6924 12.4166 18.8604 12.4166C19.0438 12.4166 19.2194 12.451 19.3875 12.5197C19.5556 12.5885 19.7083 12.6916 19.8458 12.8291L20.6938 13.677C20.816 13.8145 20.9115 13.9673 20.9802 14.1353C21.049 14.3034 21.0833 14.4714 21.0833 14.6395C21.0833 14.8076 21.0528 14.9794 20.9917 15.1551C20.9306 15.3308 20.8313 15.4874 20.6938 15.6249L15.6521 20.6666H12.8333ZM14.2083 19.2916H15.0792L17.8521 16.4958L17.4396 16.0603L17.0042 15.6478L14.2083 18.4208V19.2916ZM17.4396 16.0603L17.0042 15.6478L17.8521 16.4958L17.4396 16.0603Z" fill="white"/>
</g>
</svg>
