<svg width="131" height="132" viewBox="0 0 131 132" fill="none" xmlns="http://www.w3.org/2000/svg">
<path d="M103.435 81.2255C100.864 75.8655 91.667 68.4256 82.781 61.237C77.8247 57.2305 73.1415 53.4425 70.1559 50.4569C69.408 49.7036 68.2891 49.4634 67.3012 49.8183C65.4619 50.4843 64.3264 50.9973 63.4314 51.3956C62.0669 52.0069 61.6084 52.2144 59.7687 52.3999C58.9554 52.4818 58.2241 52.9185 57.771 53.5953C53.9118 59.3646 49.9164 58.8734 47.2472 57.9784C46.3957 57.6946 46.243 57.3288 46.1611 56.9795C45.588 54.5834 48.4646 49.0049 52.1925 45.2768C61.0624 36.4015 65.6364 34.1799 75.2976 38.4975C86.2579 43.399 97.2401 47.2364 97.3493 47.2745C98.785 47.7711 100.33 47.0179 100.826 45.5933C101.317 44.1686 100.57 42.613 99.145 42.1164C99.0357 42.0783 88.272 38.3174 77.53 33.5085C65.0141 27.9136 58.1473 31.598 48.3387 41.4123C44.6052 45.1458 39.5343 52.7 40.8443 58.2404C41.4065 60.5984 43.066 62.3451 45.533 63.1583C51.7173 65.1998 57.3611 63.2455 61.5641 57.6673C63.2998 57.3999 64.2442 57.0069 65.6632 56.3683C66.1762 56.139 66.7767 55.8716 67.5737 55.5495C70.696 58.4806 74.9097 61.892 79.3473 65.4781C87.3711 71.968 96.4702 79.326 98.5171 83.5835C99.527 85.6849 98.4406 87.055 97.7037 87.6826C96.623 88.6106 95.1438 88.9054 94.3415 88.343C93.4572 87.7371 92.3056 87.699 91.394 88.2448C90.477 88.7905 89.964 89.8221 90.0786 90.8811C90.2641 92.6169 88.6757 93.6104 87.988 93.9543C86.2412 94.8385 84.4182 94.6858 83.7358 94.0525C82.9716 93.343 81.8745 93.1355 80.903 93.4958C79.9315 93.8614 79.2545 94.7566 79.1562 95.7936C78.9925 97.5839 77.6661 99.3033 75.9357 99.9746C75.1006 100.291 73.8888 100.482 72.8027 99.4888C72.126 98.8775 71.187 98.6426 70.3083 98.8555C69.4187 99.0737 68.7036 99.718 68.3925 100.575C68.2888 100.848 68.054 101.503 65.4995 101.503C63.6818 101.503 60.4122 100.275 58.8131 99.2158C56.8972 97.9549 44.8833 88.9924 34.5072 80.3026C33.0498 79.0745 30.5281 76.4435 28.3011 74.1182C26.3251 72.055 24.5185 70.1829 23.5905 69.3969C22.4278 68.4144 20.7085 68.5617 19.7423 69.719C18.7708 70.8706 18.9126 72.5956 20.0645 73.5671C20.9106 74.2822 22.5481 76.0124 24.3547 77.8955C26.7892 80.439 29.3053 83.07 30.9976 84.4892C41.1611 92.9989 53.3769 102.185 55.8111 103.784C57.8198 105.105 62.1482 106.961 65.4997 106.961C68.1906 106.961 70.2595 106.344 71.6949 105.138C73.6161 105.886 75.7996 105.891 77.901 105.073C80.3846 104.112 82.4258 102.174 83.5831 99.8273C85.7336 100.286 88.1955 99.9636 90.4332 98.8394C92.6221 97.7369 94.2048 96.0503 94.9908 94.0796C97.1633 94.1942 99.4011 93.4246 101.251 91.8363C104.385 89.1564 105.247 84.9864 103.435 81.2255Z" fill="#11A63E"/>
<path d="M54.5828 36.0039H30.0203C28.5138 36.0039 27.291 37.2267 27.291 38.7332C27.291 40.2397 28.5138 41.4624 30.0203 41.4624H54.5828C56.0893 41.4624 57.312 40.2397 57.312 38.7332C57.312 37.2267 56.0893 36.0039 54.5828 36.0039Z" fill="#11A63E"/>
<path d="M111.431 75.4182C110.585 74.1683 108.893 73.8244 107.643 74.6759L99.6635 80.0359C98.4136 80.8764 98.0805 82.5741 98.9212 83.8239C99.4506 84.6046 100.313 85.0303 101.192 85.0303C101.711 85.0303 102.24 84.8829 102.709 84.5664L110.689 79.2064C111.939 78.3657 112.272 76.6683 111.431 75.4182Z" fill="#11A63E"/>
<path d="M94.4891 88.4421C92.5351 86.9028 83.7962 77.9567 78.3924 72.3237C77.3498 71.232 75.6197 71.1938 74.5333 72.2418C73.4416 73.2845 73.4088 75.0146 74.4514 76.101C75.8543 77.5637 88.2282 90.4618 91.1048 92.7326C91.6014 93.1256 92.2019 93.3167 92.7914 93.3167C93.5938 93.3167 94.3962 92.9565 94.9419 92.2741C95.8756 91.0948 95.6737 89.3755 94.4891 88.4421Z" fill="#11A63E"/>
<path d="M83.5821 93.9163C80.3124 91.3017 72.0978 82.5738 70.2418 80.5543C69.2156 79.4408 67.4962 79.3753 66.3827 80.3906C65.2746 81.4112 65.1983 83.1416 66.2189 84.2497C66.3172 84.3533 76.1204 94.9372 80.1704 98.1795C80.6727 98.5778 81.2786 98.7743 81.8734 98.7743C82.6704 98.7743 83.4672 98.4195 84.0076 97.7537C84.9468 96.5745 84.7557 94.8551 83.5821 93.9163Z" fill="#11A63E"/>
<path d="M72.7215 99.4136C68.8296 96.1332 60.866 87.6563 59.3104 85.9914C58.2787 84.8889 56.5484 84.8288 55.4512 85.8604C54.3487 86.892 54.294 88.6168 55.3202 89.7196C57.5582 92.1157 65.178 100.194 69.2009 103.589C69.7139 104.02 70.3361 104.233 70.9584 104.233C71.7334 104.233 72.5086 103.9 73.049 103.262C74.0205 102.104 73.8731 100.385 72.7215 99.4136Z" fill="#11A63E"/>
<path d="M31.8985 31.2933C27.2206 26.8611 8.515 25.4255 2.893 25.0926C2.118 25.0545 1.40288 25.3108 0.857129 25.8295C0.311125 26.3425 0 27.063 0 27.8162V76.9412C0 78.4477 1.22275 79.6704 2.72925 79.6704H19.1043C20.2833 79.6704 21.3313 78.9118 21.6969 77.7873C22.0952 76.5646 31.5001 47.7011 32.739 33.5093C32.8101 32.6796 32.5044 31.8608 31.8985 31.2933ZM17.1119 74.2122H5.45825V30.742C14.2299 31.4351 23.6946 32.9416 27.1334 34.6118C25.687 46.5656 19.1424 67.804 17.1119 74.2122Z" fill="#11A63E"/>
<path d="M128.271 30.5449C106.841 30.5449 94.9529 36.0305 94.4562 36.2598C93.7467 36.5927 93.2171 37.2095 92.9989 37.9574C92.7806 38.7053 92.8896 39.5077 93.299 40.1734C96.6722 45.6045 107.234 75.7673 109.265 83.125C109.592 84.3094 110.667 85.1282 111.896 85.1282H128.271C129.777 85.1282 131 83.9054 131 82.3989V33.2739C131 31.762 129.777 30.5449 128.271 30.5449ZM125.542 79.6699H113.937C111.35 71.2422 103.708 49.2669 99.4452 40.1844C103.61 38.7708 112.556 36.3417 125.542 36.0362V79.6699Z" fill="#11A63E"/>
</svg>
