<svg width="131" height="132" viewBox="0 0 131 132" fill="none" xmlns="http://www.w3.org/2000/svg">
<g clip-path="url(#clip0_0_1088)">
<mask id="mask0_0_1088" style="mask-type:luminance" maskUnits="userSpaceOnUse" x="0" y="0" width="131" height="132">
<path d="M0 0.525345H131V131.525H0V0.525345Z" fill="white"/>
</mask>
<g mask="url(#mask0_0_1088)">
<path d="M24.4483 85.5833L9.77685 94.054C9.06019 94.4677 8.81457 95.3842 9.22829 96.1009L27.7571 128.194C28.1711 128.911 29.0873 129.156 29.8042 128.742L44.4757 120.272C45.1924 119.858 45.438 118.941 45.024 118.225L26.4952 86.1318C26.0815 85.4152 25.165 85.1695 24.4483 85.5833Z" stroke="#11A63E" stroke-width="5.11719" stroke-miterlimit="10" stroke-linecap="round" stroke-linejoin="round"/>
<path d="M62.9785 113.02H83.8556C88.8922 113.02 93.7221 111.019 97.2834 107.458L120.042 84.699C122.873 81.8681 122.621 77.2066 119.501 74.6982C116.824 72.5456 112.956 72.7552 110.527 75.1838L88.9314 96.7796C87.6674 98.0433 85.9537 98.7533 84.1665 98.7533H79.1987" stroke="#11A63E" stroke-width="5.11719" stroke-miterlimit="10" stroke-linecap="round" stroke-linejoin="round"/>
<path d="M29.1133 90.6654L46.1151 81.9158C50.1749 79.8264 54.8561 79.2863 59.285 80.396L83.4813 86.4581C86.2582 87.154 88.2058 89.6497 88.2058 92.5125C88.2058 95.9594 85.4115 98.7539 81.9644 98.7539H62.9466" stroke="#11A63E" stroke-width="5.11719" stroke-miterlimit="10" stroke-linecap="round" stroke-linejoin="round"/>
<path d="M37.2513 124.443L29.6113 111.211" stroke="#11A63E" stroke-width="5.11719" stroke-miterlimit="10" stroke-linecap="round" stroke-linejoin="round"/>
</g>
<g clip-path="url(#clip1_0_1088)">
<path d="M65.5 4.52539C47.0277 4.52539 32 19.5531 32 38.0254C32 56.4963 47.0277 71.5254 65.5 71.5254C83.9723 71.5254 99 56.4963 99 38.0254C99 19.5531 83.9723 4.52539 65.5 4.52539ZM65.5 65.9421C50.107 65.9421 37.5833 53.4184 37.5833 38.0254C37.5833 22.6324 50.107 10.1087 65.5 10.1087C80.893 10.1087 93.4167 22.6324 93.4167 38.0254C93.4167 53.4184 80.893 65.9421 65.5 65.9421Z" fill="#11A63E"/>
<path d="M69.408 21.0014C69.0413 20.8419 68.6685 20.7152 68.293 20.6048V15.6914H62.7096V20.6232C60.0509 21.4267 57.7472 23.346 56.5613 26.0893C55.524 28.4843 55.4837 31.1403 56.4441 33.5667C57.4044 35.9937 59.2521 37.9007 61.7091 38.9626L67.1384 41.1613C68.1648 41.6036 68.9575 42.4215 69.3692 43.4615C69.7808 44.5016 69.7631 45.6405 69.3187 46.6662C68.875 47.692 68.0571 48.4853 67.0171 48.897C65.9757 49.3086 64.8395 49.2916 63.8138 48.8465C62.298 48.1909 61.3165 46.6819 61.3152 45.0025L61.3138 42.2109L55.7305 42.2163L55.7318 45.008C55.7346 48.912 58.0362 52.4295 61.596 53.9719C61.9613 54.13 62.3341 54.2581 62.711 54.3699V60.3581H68.2943V54.3535C68.5554 54.2738 68.8164 54.1872 69.0734 54.085C71.499 53.1247 73.406 51.2756 74.4427 48.8799C75.48 46.4849 75.5209 43.8303 74.5606 41.4039C73.5996 38.9782 71.7519 37.0712 69.2949 36.008L63.8656 33.8107C62.8391 33.367 62.0465 32.5491 61.6348 31.509C61.2232 30.469 61.2416 29.3301 61.6853 28.3043C62.1289 27.2779 62.9468 26.4853 63.9869 26.0736C65.0256 25.6633 66.1645 25.6797 67.1916 26.124C68.6849 26.7715 69.6888 28.1885 69.6888 29.6497V32.4414H75.2721V29.6497C75.2721 25.9366 72.9705 22.5424 69.408 21.0014Z" fill="#11A63E"/>
</g>
</g>
<defs>
<clipPath id="clip0_0_1088">
<rect width="131" height="131" fill="white" transform="translate(0 0.525391)"/>
</clipPath>
<clipPath id="clip1_0_1088">
<rect width="67" height="67" fill="white" transform="translate(32 4.52539)"/>
</clipPath>
</defs>
</svg>
