<svg width="131" height="132" viewBox="0 0 131 132" fill="none" xmlns="http://www.w3.org/2000/svg">
<g clip-path="url(#clip0_0_1136)">
<path d="M112.843 54.6764H112.519V46.7321C112.519 21.2128 91.8316 0.525391 66.3121 0.525391C40.7926 0.525391 20.1054 21.2128 20.1054 46.7321V54.6764H18.16C11.0263 54.6764 5.51398 60.9992 5.51398 68.2953V88.5613C5.3343 95.6327 10.9214 101.511 17.9927 101.69C18.0486 101.692 18.1041 101.693 18.16 101.694H30.1575C31.8568 101.614 33.1698 100.171 33.0897 98.4718C33.0869 98.4107 33.0823 98.3495 33.0757 98.2887V58.5672C33.0757 56.6218 31.9409 54.676 30.1575 54.676H26.5906V46.7318C26.5906 24.7943 44.3747 7.01024 66.3121 7.01024C88.2495 7.01024 106.034 24.7943 106.034 46.7318V54.676H102.467C100.683 54.676 99.5485 56.6215 99.5485 58.5672V98.2887C99.3675 99.9803 100.592 101.498 102.284 101.679C102.344 101.686 102.406 101.69 102.467 101.693H106.196L105.871 102.18C101.006 108.645 93.3724 112.432 85.281 112.394C83.5097 103.708 75.0322 98.1025 66.3465 99.8742C58.9189 101.389 53.5637 107.894 53.5038 115.474C53.5925 124.365 60.8256 131.525 69.7167 131.525C74.118 131.453 78.3133 129.647 81.3898 126.499C83.4656 124.373 84.8257 121.652 85.281 118.716C95.4137 118.755 104.97 114.007 111.059 105.908L114.14 101.369C121.111 100.882 125.489 96.505 125.489 90.1818V69.9158C125.489 62.945 120.301 54.6764 112.843 54.6764ZM26.5906 95.2084H18.16C14.6689 95.1234 11.9076 92.2247 11.9926 88.7335C11.9942 88.6761 11.9963 88.6187 11.9991 88.561V68.2949C11.9991 64.5661 14.5931 61.1612 18.16 61.1612H26.5906V95.2084ZM76.6884 121.96C74.8916 123.908 72.3671 125.023 69.717 125.04C64.4421 124.956 60.1615 120.747 59.9892 115.474C59.9871 110.192 64.268 105.907 69.5509 105.905C74.8339 105.903 79.1183 110.184 79.1204 115.467C79.1204 115.469 79.1204 115.472 79.1204 115.474C79.2554 117.882 78.3728 120.235 76.6884 121.96ZM119.004 90.1824C119.004 94.5599 114.788 95.2084 112.843 95.2084H106.034V61.1615H112.843C116.41 61.1615 119.004 66.1875 119.004 69.9164V90.1824Z" fill="#11A63E"/>
</g>
<defs>
<clipPath id="clip0_0_1136">
<rect width="131" height="131" fill="white" transform="translate(0 0.525391)"/>
</clipPath>
</defs>
</svg>
